<svg width="2192" height="2486" xmlns="http://www.w3.org/2000/svg" clip-rule="evenodd" version="1.1" xml:space="preserve">

 <g>
  <title>Layer 1</title>
  <rect stroke="#000" id="svg_8" height="2536.66465" width="2226.66467" y="-23.67829" x="-9.02172" fill="#fff"/>
  <g stroke="null" id="图层_x0020_1">
   <metadata stroke="null" id="CorelCorpID_0Corel-Layer"/>
   <path stroke="null" id="svg_1" d="m1329,1779c88,-50 154,-100 204,-148c49,-47 84,-92 110,-131c51,-77 65,-159 50,-236c-16,-84 -66,-163 -140,-226c-71,-60 -139,-91 -205,-99c-70,-8 -137,10 -202,48c-43,26 -86,63 -127,108c-45,49 -87,107 -125,170c-45,74 -85,155 -110,234c-21,67 -32,132 -28,190c6,66 24,113 50,145c28,35 67,53 113,60c54,9 117,1 180,-17c81,-22 162,-59 230,-98zm-664,-989c-96,-20 -264,-15 -373,20c-33,11 -59,23 -74,38c-10,10 -14,20 -9,33c9,27 45,62 118,106c220,132 551,83 631,69c3,-3 6,-6 8,-9c3,-3 5,-5 7,-8c-113,-14 -209,-101 -285,-213c-8,-12 -15,-24 -23,-36zm228,347c-142,17 -409,27 -603,-89c-88,-53 -134,-101 -148,-144c-15,-41 -4,-77 25,-106c24,-23 60,-42 103,-56c100,-32 245,-41 353,-30c-60,-121 -98,-251 -109,-345c-11,-95 -3,-172 19,-230c27,-69 72,-113 128,-129c66,-19 132,-3 194,35c70,43 134,113 185,187c46,67 83,138 109,206c33,81 51,158 58,216c6,58 6,109 1,153c-3,31 -10,58 -18,83c54,-19 109,-27 167,-20c32,4 65,13 99,26c-9,-21 -14,-43 -16,-65c-2,-11 -2,-23 -2,-34c3,-59 26,-114 70,-159c39,-40 95,-72 171,-92c51,-13 123,-18 196,-10c62,7 126,23 179,52c10,5 19,11 28,17c40,29 75,70 94,115c21,48 24,101 -3,150c-3,6 -7,12 -11,17c-45,63 -102,112 -167,148c-68,38 -145,61 -223,70c-15,1 -29,2 -43,1c-9,-1 -18,-2 -26,-3c30,47 50,98 60,150c18,95 1,195 -60,288c-29,43 -67,92 -121,144c-54,51 -124,105 -218,158c-73,41 -159,81 -246,105c-72,20 -145,29 -210,19c-62,-10 -117,-36 -158,-86c-35,-43 -58,-103 -65,-184c-5,-67 7,-142 31,-218c27,-84 69,-170 117,-249c19,-32 39,-62 60,-91zm243,-477c-6,-53 -23,-123 -53,-198c-25,-63 -59,-130 -101,-192c-46,-66 -104,-129 -164,-166c-45,-28 -93,-41 -137,-28c-34,10 -63,39 -81,86c-18,48 -25,113 -16,196c14,117 73,293 163,428c66,98 147,172 237,183c10,1 20,1 30,0c29,-3 56,-18 77,-44c23,-28 40,-71 46,-128c5,-39 5,-85 -1,-137zm732,-55c-65,-7 -128,-3 -171,8c-62,16 -108,41 -138,73c-32,32 -47,70 -49,112c-1,8 -1,16 0,24c5,47 32,98 71,139c40,40 93,69 151,72c11,0 21,0 32,-1c69,-8 137,-28 197,-61c55,-31 105,-73 143,-127c3,-4 5,-7 7,-10c15,-28 12,-59 0,-88c-14,-33 -40,-63 -70,-85c-8,-5 -15,-9 -21,-13c-44,-24 -98,-38 -152,-43z" fill="#FF7F00"/>
   <path stroke="null" id="svg_2" d="m1307,571c0,-1 -144,-417 148,-475c78,-16 111,0 137,31c55,66 40,235 -83,210c-69,-15 -77,-132 -53,-178c-206,30 -91,388 -91,389l-58,23z" fill="#FF7F00"/>
   <path stroke="null" id="svg_3" d="m818,1321c248,93 438,237 548,451l-124,54c-144,-228 -385,-303 -469,-325l45,-180z" fill="#FF7F00"/>
   <path stroke="null" id="svg_4" d="m1088,1004c1,0 407,164 571,520l-130,130c-139,-321 -603,-457 -604,-457l163,-193z" fill="#FF7F00"/>
   <path stroke="null" id="svg_5" d="m1404,1886c0,0 267,-160 414,-405l81,0l179,321l-179,314l-368,2l-127,-232z" fill="#CCFF00"/>
   <path stroke="null" id="svg_6" d="m757,2034c0,0 210,75 523,-76l127,215l-175,313l-378,0l-183,-310l86,-142z" fill="#CCFF00"/>
   <path stroke="null" id="svg_7" d="m646,1941c0,0 -77,-124 -35,-351l-59,-116l-366,0l-186,318l177,314l374,0l95,-165z" fill="#CCFF00"/>
  </g>
 </g>
</svg>