<svg width="28" height="28" xmlns="http://www.w3.org/2000/svg">
 <g>
  <title>Layer 1</title>
  <g stroke="null" id="svg_1">
   <path stroke="null" fill="currentColor" d="m13.58529,23.72922l-0.0162,-7.53814l-6.48896,-3.78187l-6.47725,3.76819l0.01578,7.59713l6.46147,3.75157l6.50517,-3.79688l0,0.00001zm-5.84691,1.89378l0.01157,-5.27794l4.51023,-2.63491l0.01157,5.26637l-4.53338,2.64648l0.00001,0zm-0.65919,-11.69534l4.53226,2.64191l-4.51689,2.63826l-4.53239,-2.65187l4.51703,-2.6283l-0.00001,-0.00001l-0.00001,0zm-5.16043,3.77226l4.51878,2.64423l-0.01151,5.28516l-4.4964,-2.61098l-0.01087,-5.31842l0,0.00001z" id="svg_2"/>
   <path stroke="null" fill="currentColor" d="m20.58329,12.40963l-6.47703,3.76776l0.0162,7.59713l6.46159,3.75157l6.50439,-3.79688l-0.0162,-7.53814l-6.48896,-3.78145l0.00001,0.00001zm-0.00091,1.51802l4.53239,2.64191l-4.51703,2.63826l-4.53247,-2.65195l4.5171,-2.62824l0.00001,0l0,0.00001zm-5.16036,3.77226l4.5183,2.64423l-0.01151,5.28516l-4.49528,-2.61098l-0.01151,-5.31842l0,0.00001zm5.81996,7.92307l0.01116,-5.27794l4.51023,-2.63491l0.01151,5.26637l-4.53289,2.64648l-0.00001,0z" id="svg_3"/>
   <path stroke="null" fill="currentColor" d="m20.3355,4.26768l-6.48917,-3.78082l-6.47703,3.76714l0.01557,7.59749l6.46147,3.75184l6.5046,-3.79688l-0.01544,-7.53877l0.00001,0zm-6.49001,-2.263l4.53268,2.64128l-4.51689,2.63918l-4.53268,-2.65265l4.51689,-2.62781zm-5.1605,3.77198l4.51878,2.64473l-0.01129,5.28516l-4.49662,-2.61056l-0.01087,-5.31932l0,-0.00001zm5.8194,7.9235l0.01136,-5.27807l4.51044,-2.63532l0.01151,5.26678l-4.53331,2.64661l-0.00001,0z" id="svg_4"/>
  </g>
 </g>

</svg>