<?xml version="1.0" encoding="UTF-8"?>
<!DOCTYPE svg PUBLIC "-//W3C//DTD SVG 1.1//EN" "http://www.w3.org/Graphics/SVG/1.1/DTD/svg11.dtd">
<!-- Creator: CorelDRAW X8 -->
<svg xmlns="http://www.w3.org/2000/svg" xml:space="preserve" width="583.072mm" height="935.567mm" version="1.1" style="shape-rendering:geometricPrecision; text-rendering:geometricPrecision; image-rendering:optimizeQuality; fill-rule:evenodd; clip-rule:evenodd"
viewBox="0 0 9727 15607"
 xmlns:xlink="http://www.w3.org/1999/xlink">
 <defs>
  <style type="text/css">
   <![CDATA[
    .fil3 {fill:#BFBFBF}
    .fil2 {fill:#CCFF00}
    .fil1 {fill:#FF7F00}
    .fil0 {fill:transparent}
   ]]>
  </style>
 </defs>
 <g id="图层_x0020_1">
  <metadata id="CorelCorpID_0Corel-Layer"/>
  <path id="svg_8" class="fil0" d="M4889 0l0 0c2661,0 4838,2177 4838,4837l0 10770 -9675 0 0 -10770c0,-2660 2177,-4837 4837,-4837z"/>
  <g id="_1906587313696">
   <path id="svg_1" class="fil1" d="M5866 12486c388,-220 680,-441 900,-653 217,-207 371,-406 486,-578 225,-340 287,-702 220,-1042 -70,-370 -291,-719 -617,-997 -314,-265 -614,-402 -905,-437 -309,-35 -605,44 -892,212 -190,115 -379,278 -560,476 -199,217 -384,473 -552,751 -199,326 -375,684 -486,1033 -92,295 -141,582 -123,838 26,292 106,499 220,640 124,155 296,234 499,265 239,40 517,4 795,-75 357,-97 715,-260 1015,-433l0 0zm-2931 -4365c-424,-88 -1165,-66 -1646,89 -146,48 -261,101 -327,167 -44,44 -62,89 -40,146 40,119 199,274 521,468 971,582 2432,366 2785,304 14,-13 27,-26 36,-39 13,-14 22,-22 31,-36 -499,-62 -923,-446 -1258,-940 -36,-53 -67,-106 -102,-159l0 0zm1006 1532c-626,75 -1805,119 -2661,-393 -388,-234 -591,-446 -653,-636 -66,-181 -18,-339 110,-467 106,-102 265,-186 455,-248 441,-141 1081,-181 1558,-132 -265,-534 -433,-1108 -481,-1523 -49,-419 -14,-759 84,-1015 119,-304 317,-499 564,-569 292,-84 583,-14 857,154 309,190 591,499 816,826 203,295 367,609 481,909 146,357 225,697 256,953 27,256 27,481 5,675 -13,137 -44,256 -80,367 239,-84 481,-119 737,-88 142,17 287,57 437,114 -39,-92 -61,-190 -70,-287 -9,-48 -9,-101 -9,-150 13,-260 115,-503 309,-701 172,-177 419,-318 755,-407 225,-57 543,-79 865,-44 273,31 556,102 790,230 44,22 84,48 123,75 177,128 331,309 415,507 93,212 106,446 -13,663 -13,26 -31,52 -49,75 -198,278 -450,494 -737,653 -300,168 -640,269 -984,309 -66,4 -128,9 -190,4 -39,-4 -79,-9 -114,-13 132,207 220,432 264,662 80,419 5,861 -264,1271 -128,190 -296,406 -534,636 -239,225 -548,463 -963,697 -322,181 -701,358 -1085,464 -318,88 -640,128 -927,83 -274,-44 -517,-159 -698,-379 -154,-190 -256,-455 -287,-812 -22,-296 31,-627 137,-963 119,-370 305,-750 517,-1099 83,-141 172,-273 264,-401l0 0zm1073 -2106c-26,-233 -102,-542 -234,-873 -110,-279 -260,-574 -446,-848 -203,-291 -459,-569 -724,-733 -198,-123 -410,-181 -604,-123 -150,44 -278,172 -358,379 -79,212 -110,499 -70,866 61,516 322,1293 719,1889 291,432 649,759 1046,807 44,5 88,5 133,0 128,-13 247,-79 339,-194 102,-123 177,-313 203,-565 22,-172 22,-375 -4,-605l0 0zm3231 -242c-287,-31 -565,-14 -755,35 -274,71 -477,181 -609,322 -141,141 -207,309 -216,495 -5,35 -5,70 0,106 22,207 141,432 313,613 177,177 411,305 667,318 48,0 92,0 141,-5 304,-35 604,-123 869,-269 243,-137 464,-322 631,-560 14,-18 23,-31 31,-45 67,-123 53,-260 0,-388 -61,-146 -176,-278 -309,-375 -35,-22 -66,-40 -92,-57 -194,-106 -433,-168 -671,-190l0 0z"/>
   <path id="svg_2" class="fil1" d="M5769 7155c0,-5 -636,-1841 653,-2097 344,-70 490,0 605,137 242,291 176,1037 -367,927 -304,-66 -340,-583 -234,-786 -909,133 -401,1713 -401,1717l-256 102z"/>
   <path id="svg_3" class="fil1" d="M3610 10465c1095,410 1934,1046 2419,1991l-547 238c-636,-1006 -1699,-1337 -2070,-1435l198 -794 0 0z"/>
   <path id="svg_4" class="fil1" d="M4802 9066c5,0 1797,724 2520,2295l-573 574c-614,-1417 -2662,-2017 -2666,-2017l719 -852 0 0z"/>
   <path id="svg_5" class="fil2" d="M6197 12959c0,0 1178,-706 1827,-1788l358 0 790 1417 -790 1386 -1625 9 -560 -1024 0 0z"/>
   <path id="svg_6" class="fil2" d="M3341 13612c0,0 927,331 2309,-336l560 949 -772 1382 -1669 0 -807 -1368 379 -627 0 0z"/>
   <path id="svg_7" class="fil2" d="M2851 13201c0,0 -340,-547 -154,-1549l-261 -512 -1615 0 -821 1404 781 1386 1651 0 419 -729 0 0z"/>
  </g>
  <path id="svg_9" class="fil3" d="M7813 4324c-182,182 -455,182 -637,0l-2274 -2244 -2243 2244c-182,182 -485,182 -667,0 -182,-182 -182,-455 0,-637l2577 -2577c182,-182 455,-182 637,0l2577 2577c181,182 181,455 30,637l0 0z" p-id="6993"/>
 </g>
</svg>
