<?xml version="1.0" encoding="UTF-8"?>
<!DOCTYPE svg PUBLIC "-//W3C//DTD SVG 1.1//EN" "http://www.w3.org/Graphics/SVG/1.1/DTD/svg11.dtd">
<!-- Creator: CorelDRAW X8 -->
<svg xmlns="http://www.w3.org/2000/svg" xml:space="preserve" width="580.099mm" height="935.571mm" version="1.1" style="shape-rendering:geometricPrecision; text-rendering:geometricPrecision; image-rendering:optimizeQuality; fill-rule:evenodd; clip-rule:evenodd"
viewBox="0 0 10099 16287"
 xmlns:xlink="http://www.w3.org/1999/xlink">
 <defs>
  <style type="text/css">
   <![CDATA[
    .fil3 {fill:#BFBFBF}
    .fil2 {fill:#CCFF00}
    .fil1 {fill:#FF7F00}
    .fil0 {fill:transparent}
   ]]>
  </style>
 </defs>
 <g id="图层_x0020_1">
  <metadata id="CorelCorpID_0Corel-Layer"/>
  <path id="svg_8" class="fil0" d="M5048 16287l0 0c2777,0 5048,-2272 5048,-5048l0 -11239 -10096 0 0 11239c0,2776 2272,5048 5048,5048z"/>
  <g id="_1871361194384">
   <path id="svg_1" class="fil1" d="M6121 8194c406,-230 710,-460 940,-682 226,-216 387,-423 507,-603 235,-355 299,-732 230,-1087 -74,-387 -304,-751 -645,-1041 -327,-276 -640,-419 -944,-456 -323,-37 -631,46 -931,221 -198,120 -396,290 -584,498 -208,225 -401,492 -576,783 -208,341 -392,714 -507,1077 -97,309 -147,608 -129,876 28,304 111,520 230,667 129,162 309,245 521,277 249,41 539,4 829,-78 373,-102 746,-272 1059,-452l0 0zm-3058 -4555c-442,-92 -1216,-69 -1718,92 -152,51 -272,106 -341,175 -46,46 -64,92 -41,152 41,124 207,286 543,488 1013,608 2538,383 2907,318 13,-14 27,-28 36,-41 14,-14 23,-23 33,-37 -521,-65 -963,-465 -1313,-981 -37,-56 -69,-111 -106,-166l0 0zm1050 1598c-654,78 -1884,124 -2777,-410 -406,-244 -617,-465 -682,-663 -69,-189 -18,-355 115,-488 111,-106 277,-194 475,-258 460,-148 1128,-189 1626,-138 -277,-558 -452,-1157 -503,-1590 -50,-437 -13,-792 88,-1059 124,-318 332,-520 590,-594 304,-88 608,-14 893,161 323,198 617,521 852,861 212,309 383,636 502,949 152,373 235,728 267,995 28,267 28,502 5,705 -14,143 -46,267 -83,382 249,-87 502,-124 769,-92 148,19 300,60 456,120 -41,-97 -64,-198 -73,-300 -10,-50 -10,-105 -10,-156 14,-272 120,-525 323,-732 179,-185 437,-332 787,-424 235,-60 567,-83 903,-46 286,32 581,106 825,239 46,23 87,51 129,79 184,133 345,322 433,529 96,221 110,465 -14,691 -14,28 -32,55 -51,78 -207,291 -470,516 -769,682 -313,175 -668,281 -1027,323 -69,4 -134,9 -198,4 -42,-4 -83,-9 -120,-14 138,217 230,452 276,691 83,438 5,898 -276,1327 -134,198 -309,423 -557,663 -249,235 -571,484 -1004,728 -337,189 -733,373 -1133,483 -332,92 -668,134 -968,88 -285,-46 -539,-166 -728,-396 -161,-198 -267,-475 -299,-848 -23,-308 32,-654 143,-1004 124,-387 318,-783 539,-1147 87,-147 179,-285 276,-419l0 0zm1119 -2197c-27,-244 -106,-566 -244,-912 -115,-290 -271,-599 -465,-884 -212,-304 -479,-594 -755,-765 -208,-129 -429,-189 -631,-129 -157,46 -290,180 -373,396 -83,221 -116,521 -74,903 64,539 336,1350 751,1971 304,452 677,793 1091,843 46,5 92,5 138,0 134,-14 258,-83 355,-202 106,-129 184,-327 212,-590 23,-180 23,-391 -5,-631l0 0zm3372 -253c-299,-33 -590,-14 -788,37 -285,73 -497,188 -635,336 -148,147 -217,322 -226,516 -5,37 -5,73 0,110 23,217 147,452 327,640 184,185 428,318 696,332 50,0 96,0 147,-5 318,-36 631,-128 907,-280 254,-143 484,-337 659,-585 14,-19 23,-33 32,-47 69,-128 56,-271 0,-405 -64,-152 -184,-290 -322,-391 -37,-23 -69,-42 -97,-60 -203,-111 -451,-175 -700,-198l0 0z"/>
   <path id="svg_2" class="fil1" d="M6020 2630c0,-4 -663,-1921 682,-2188 359,-73 511,0 631,143 253,304 184,1082 -383,967 -317,-69 -354,-608 -244,-820 -948,139 -419,1788 -419,1792l-267 106z"/>
   <path id="svg_3" class="fil1" d="M3768 6085c1142,428 2017,1091 2524,2077l-571 249c-664,-1051 -1774,-1396 -2161,-1497l208 -829 0 0z"/>
   <path id="svg_4" class="fil1" d="M5011 4625c5,0 1875,755 2630,2395l-598 598c-641,-1478 -2778,-2105 -2782,-2105l750 -888 0 0z"/>
   <path id="svg_5" class="fil2" d="M6467 8687c0,0 1230,-737 1907,-1865l373 0 824 1478 -824 1446 -1695 10 -585 -1069 0 0z"/>
   <path id="svg_6" class="fil2" d="M3487 9369c0,0 967,345 2409,-350l585 990 -806 1442 -1741 0 -843 -1428 396 -654 0 0z"/>
   <path id="svg_7" class="fil2" d="M2975 8940c0,0 -354,-571 -161,-1616l-271 -535 -1686 0 -857 1465 815 1446 1723 0 437 -760 0 0z"/>
  </g>
  <path id="svg_9" class="fil3" d="M8099 11775c-190,-190 -474,-190 -664,0l-2373 2341 -2341 -2341c-190,-190 -507,-190 -696,0 -190,190 -190,474 0,664l2689 2689c190,190 474,190 664,0l2689 -2689c190,-190 190,-474 32,-664l0 0z" p-id="6993"/>
 </g>
</svg>
